<?xml version="1.0" encoding="UTF-8"?>
<!DOCTYPE svg PUBLIC "-//W3C//DTD SVG 1.1//EN" "http://www.w3.org/Graphics/SVG/1.1/DTD/svg11.dtd">
<svg xmlns="http://www.w3.org/2000/svg" version="1.1" width="682px" height="647px" style="shape-rendering:geometricPrecision; text-rendering:geometricPrecision; image-rendering:optimizeQuality; fill-rule:evenodd; clip-rule:evenodd" xmlns:xlink="http://www.w3.org/1999/xlink">
<g><path style="opacity:1" fill="#7b1818" d="M 642.5,57.5 C 638.461,62.54 633.794,66.8734 628.5,70.5C 624.728,73.0941 621.061,75.9274 617.5,79C 616.748,79.6708 616.414,80.5041 616.5,81.5C 607.388,89.8864 597.722,97.553 587.5,104.5C 578.316,110.59 569.316,116.923 560.5,123.5C 543.489,134.34 526.156,144.673 508.5,154.5C 482.284,167.276 455.617,178.943 428.5,189.5C 419.105,191.682 409.772,194.182 400.5,197C 399.944,197.383 399.611,197.883 399.5,198.5C 399.167,198.5 398.833,198.5 398.5,198.5C 382.487,201.803 366.487,205.303 350.5,209C 337.375,211.259 324.375,213.425 311.5,215.5C 308.038,216.482 304.371,216.815 300.5,216.5C 289.216,218.211 282.216,213.544 279.5,202.5C 280.187,200.823 280.854,199.156 281.5,197.5C 281.5,196.833 281.5,196.167 281.5,195.5C 283.177,193.46 284.844,191.46 286.5,189.5C 288.371,189.141 289.871,188.141 291,186.5C 296.333,180.5 301.667,174.5 307,168.5C 307.791,167.255 308.291,165.922 308.5,164.5C 320.61,153.56 332.61,142.394 344.5,131C 352.877,123.621 361.544,116.621 370.5,110C 388.919,96.7985 407.919,84.6318 427.5,73.5C 439.994,67.7524 452.328,61.7524 464.5,55.5C 475.463,52.0069 486.13,48.0069 496.5,43.5C 503.443,42.102 510.109,40.102 516.5,37.5C 521.722,36.6128 526.722,35.2795 531.5,33.5C 553.409,28.516 575.409,24.8493 597.5,22.5C 615.154,21.47 632.821,21.3034 650.5,22C 658.23,24.9588 661.063,30.4588 659,38.5C 653.268,44.7248 647.768,51.0582 642.5,57.5 Z"/></g>
<g><path style="opacity:0.89" fill="#ae2926" d="M 595.5,22.5 C 596.167,22.5 596.833,22.5 597.5,22.5C 575.409,24.8493 553.409,28.516 531.5,33.5C 532.842,32.207 534.509,31.3736 536.5,31C 555.965,26.7193 575.631,23.886 595.5,22.5 Z"/></g>
<g><path style="opacity:0.061" fill="#ae2827" d="M 531.5,33.5 C 526.722,35.2795 521.722,36.6128 516.5,37.5C 521.112,35.0954 526.112,33.762 531.5,33.5 Z"/></g>
<g><path style="opacity:0.216" fill="#ad2928" d="M 516.5,37.5 C 510.109,40.102 503.443,42.102 496.5,43.5C 502.799,40.5877 509.465,38.5877 516.5,37.5 Z"/></g>
<g><path style="opacity:0.353" fill="#ab2a27" d="M 642.5,57.5 C 647.768,51.0582 653.268,44.7248 659,38.5C 661.063,30.4588 658.23,24.9588 650.5,22C 632.821,21.3034 615.154,21.47 597.5,22.5C 596.833,22.5 596.167,22.5 595.5,22.5C 613.258,19.73 631.258,18.8967 649.5,20C 659.142,23.1143 662.642,29.6143 660,39.5C 654.663,46.0038 648.829,52.0038 642.5,57.5 Z"/></g>
<g><path style="opacity:0.502" fill="#ad2927" d="M 496.5,43.5 C 486.13,48.0069 475.463,52.0069 464.5,55.5C 472.495,51.5462 480.829,48.0462 489.5,45C 491.813,44.338 494.146,43.838 496.5,43.5 Z"/></g>
<g><path style="opacity:0.086" fill="#aa2826" d="M 464.5,55.5 C 452.328,61.7524 439.994,67.7524 427.5,73.5C 428.574,72.1154 429.907,70.9487 431.5,70C 439.306,67.2863 446.64,63.6196 453.5,59C 457.021,57.3262 460.687,56.1596 464.5,55.5 Z"/></g>
<g><path style="opacity:0.259" fill="#b43f3a" d="M 628.5,70.5 C 625.126,74.8755 621.126,78.5422 616.5,81.5C 616.414,80.5041 616.748,79.6708 617.5,79C 621.061,75.9274 624.728,73.0941 628.5,70.5 Z"/></g>
<g><path style="opacity:0.929" fill="#a62725" d="M 427.5,73.5 C 407.919,84.6318 388.919,96.7985 370.5,110C 361.544,116.621 352.877,123.621 344.5,131C 332.61,142.394 320.61,153.56 308.5,164.5C 337.872,132.277 371.206,105.11 408.5,83C 414.897,79.8013 421.231,76.6346 427.5,73.5 Z"/></g>
<g><path style="opacity:0.247" fill="#ab2d2c" d="M 587.5,104.5 C 584.574,107.317 581.574,110.151 578.5,113C 572.855,117.154 566.855,120.654 560.5,123.5C 569.316,116.923 578.316,110.59 587.5,104.5 Z"/></g>
<g><path style="opacity:0.553" fill="#ad2f2d" d="M 560.5,123.5 C 555.685,127.47 550.685,131.303 545.5,135C 536.555,139.633 527.888,144.633 519.5,150C 516.029,152.072 512.362,153.572 508.5,154.5C 526.156,144.673 543.489,134.34 560.5,123.5 Z"/></g>
<g><path style="opacity:0.999" fill="#1e3972" d="M 45.5,139.5 C 78.9396,142.992 110.94,151.325 141.5,164.5C 140.761,164.369 140.094,164.536 139.5,165C 153.285,170.727 166.618,177.227 179.5,184.5C 184.998,187.677 190.665,190.677 196.5,193.5C 197.676,196.151 199.009,198.651 200.5,201C 199.946,203.824 199.446,206.657 199,209.5C 197.378,210.099 195.878,210.766 194.5,211.5C 187.254,212.717 179.921,212.384 172.5,210.5C 171.688,209.007 170.355,208.34 168.5,208.5C 167.274,208.52 166.274,208.853 165.5,209.5C 164.833,209.167 164.167,208.833 163.5,208.5C 155.864,205.66 147.864,203.66 139.5,202.5C 134.146,201.586 129.146,199.919 124.5,197.5C 119.78,194.36 114.447,192.694 108.5,192.5C 106.157,191.059 103.657,189.726 101,188.5C 92.8685,186.606 85.0352,183.94 77.5,180.5C 71.1387,178.938 65.1387,176.605 59.5,173.5C 53.8474,170.159 47.514,166.826 40.5,163.5C 39.8933,163.624 39.56,163.957 39.5,164.5C 34.8154,162.435 30.1487,160.269 25.5,158C 23.9586,156.629 22.6253,155.129 21.5,153.5C 22.7199,151.95 22.7199,150.284 21.5,148.5C 21.2693,145.215 22.6026,142.715 25.5,141C 32.346,140.828 39.0126,140.328 45.5,139.5 Z"/></g>
<g><path style="opacity:0.38" fill="#3f7ce4" d="M 45.5,139.5 C 39.0126,140.328 32.346,140.828 25.5,141C 22.6026,142.715 21.2693,145.215 21.5,148.5C 20.609,147.89 19.609,147.557 18.5,147.5C 18.2436,145.208 18.5769,143.041 19.5,141C 28.1074,139.661 36.7741,139.161 45.5,139.5 Z"/></g>
<g><path style="opacity:0.537" fill="#9ebcf2" d="M 18.5,147.5 C 19.609,147.557 20.609,147.89 21.5,148.5C 22.7199,150.284 22.7199,151.95 21.5,153.5C 19.9752,151.784 18.9752,149.784 18.5,147.5 Z"/></g>
<g><path style="opacity:0.929" fill="#4565a4" d="M 39.5,164.5 C 39.56,163.957 39.8933,163.624 40.5,163.5C 47.514,166.826 53.8474,170.159 59.5,173.5C 52.5613,171.029 45.8946,168.029 39.5,164.5 Z"/></g>
<g><path style="opacity:0.988" fill="#b03a34" d="M 308.5,164.5 C 308.291,165.922 307.791,167.255 307,168.5C 301.667,174.5 296.333,180.5 291,186.5C 289.871,188.141 288.371,189.141 286.5,189.5C 293.118,180.548 300.451,172.215 308.5,164.5 Z"/></g>
<g><path style="opacity:0.341" fill="#2f5193" d="M 141.5,164.5 C 155.365,169.097 168.032,175.764 179.5,184.5C 166.618,177.227 153.285,170.727 139.5,165C 140.094,164.536 140.761,164.369 141.5,164.5 Z"/></g>
<g><path style="opacity:0.898" fill="#b03532" d="M 508.5,154.5 C 494.181,162.993 479.181,170.493 463.5,177C 452.079,181.936 440.413,186.102 428.5,189.5C 455.617,178.943 482.284,167.276 508.5,154.5 Z"/></g>
<g><path style="opacity:1" fill="#3d5a95" d="M 77.5,180.5 C 85.0352,183.94 92.8685,186.606 101,188.5C 103.657,189.726 106.157,191.059 108.5,192.5C 99.4838,189.827 90.4838,186.994 81.5,184C 79.6763,183.34 78.343,182.173 77.5,180.5 Z"/></g>
<g><path style="opacity:0.224" fill="#b13633" d="M 428.5,189.5 C 419.243,193.472 409.576,196.472 399.5,198.5C 399.611,197.883 399.944,197.383 400.5,197C 409.772,194.182 419.105,191.682 428.5,189.5 Z"/></g>
<g><path style="opacity:0.976" fill="#4d6ba9" d="M 108.5,192.5 C 114.447,192.694 119.78,194.36 124.5,197.5C 118.775,196.742 113.441,195.075 108.5,192.5 Z"/></g>
<g><path style="opacity:0.875" fill="#4567a9" d="M 196.5,193.5 C 198.129,194.625 199.629,195.959 201,197.5C 201.461,202.184 201.295,206.851 200.5,211.5C 198.5,211.5 196.5,211.5 194.5,211.5C 195.878,210.766 197.378,210.099 199,209.5C 199.446,206.657 199.946,203.824 200.5,201C 199.009,198.651 197.676,196.151 196.5,193.5 Z"/></g>
<g><path style="opacity:0.267" fill="#f3b2ac" d="M 281.5,195.5 C 281.5,196.167 281.5,196.833 281.5,197.5C 280.5,198.167 279.5,198.833 278.5,199.5C 278.738,197.596 279.738,196.262 281.5,195.5 Z"/></g>
<g><path style="opacity:1" fill="#c0880f" d="M 279.5,208.5 C 279.5,209.167 279.833,209.5 280.5,209.5C 280.5,210.167 280.833,210.5 281.5,210.5C 281.328,211.492 281.662,212.158 282.5,212.5C 283.672,217.841 283.505,223.174 282,228.5C 279.034,234.147 276.034,239.814 273,245.5C 268.135,250.7 262.968,255.533 257.5,260C 255.527,260.495 253.527,260.662 251.5,260.5C 248.833,260.5 246.167,260.5 243.5,260.5C 238.268,259.113 233.602,256.613 229.5,253C 220.969,244.803 212.802,236.303 205,227.5C 202.359,223.884 200.526,219.884 199.5,215.5C 202.048,209.583 205.715,204.416 210.5,200C 225.112,198.401 239.778,198.068 254.5,199C 260.249,199.148 265.915,199.814 271.5,201C 274.036,203.705 276.703,206.205 279.5,208.5 Z"/></g>
<g><path style="opacity:0.518" fill="#94adde" d="M 139.5,202.5 C 147.864,203.66 155.864,205.66 163.5,208.5C 154.956,208.201 146.956,206.201 139.5,202.5 Z"/></g>
<g><path style="opacity:0.518" fill="#b43e3a" d="M 398.5,198.5 C 370.2,207.093 341.2,212.759 311.5,215.5C 324.375,213.425 337.375,211.259 350.5,209C 366.487,205.303 382.487,201.803 398.5,198.5 Z"/></g>
<g><path style="opacity:0.831" fill="#81a0db" d="M 165.5,209.5 C 166.274,208.853 167.274,208.52 168.5,208.5C 170.355,208.34 171.688,209.007 172.5,210.5C 170.194,210.007 167.861,209.674 165.5,209.5 Z"/></g>
<g><path style="opacity:0.929" fill="#ba453f" d="M 281.5,197.5 C 280.854,199.156 280.187,200.823 279.5,202.5C 282.216,213.544 289.216,218.211 300.5,216.5C 293.754,218.671 287.754,217.338 282.5,212.5C 282.672,211.508 282.338,210.842 281.5,210.5C 280.833,210.5 280.5,210.167 280.5,209.5C 279.833,209.5 279.5,209.167 279.5,208.5C 278.7,206.393 278.033,204.226 277.5,202C 277.528,200.93 277.861,200.097 278.5,199.5C 279.5,198.833 280.5,198.167 281.5,197.5 Z"/></g>
<g><path style="opacity:0.997" fill="#13531a" d="M 265.5,277.5 C 273.957,296.074 282.624,314.407 291.5,332.5C 293.136,333.749 294.303,335.416 295,337.5C 302.282,361.614 307.115,386.281 309.5,411.5C 308.844,412.622 308.511,413.955 308.5,415.5C 309.094,428.992 309.76,442.325 310.5,455.5C 310.48,466.187 309.98,476.854 309,487.5C 307.971,490.39 306.805,493.224 305.5,496C 305.96,497.301 306.294,498.634 306.5,500C 302.682,524.272 296.348,547.772 287.5,570.5C 287.19,569.262 286.69,569.262 286,570.5C 279.135,587.896 270.968,604.562 261.5,620.5C 260.5,622.167 259.167,623.5 257.5,624.5C 255.456,625.031 253.789,626.198 252.5,628C 249.833,628.667 247.167,628.667 244.5,628C 241.37,625.872 238.537,623.372 236,620.5C 230.395,608.022 225.229,596.022 220.5,584.5C 218.896,583.713 218.229,582.38 218.5,580.5C 219.222,580.918 219.722,581.584 220,582.5C 220.167,582 220.333,581.5 220.5,581C 212.645,556.084 206.812,530.584 203,504.5C 202.505,506.473 202.338,508.473 202.5,510.5C 193.413,439.999 199.246,370.666 220,302.5C 222.863,295.451 225.696,288.451 228.5,281.5C 228.369,282.239 228.536,282.906 229,283.5C 231.853,274.613 237.019,267.447 244.5,262C 247.783,261.257 250.783,261.924 253.5,264C 258.108,268.099 262.108,272.599 265.5,277.5 Z"/></g>
<g><path style="opacity:0.949" fill="#1e6b2b" d="M 243.5,260.5 C 246.167,260.5 248.833,260.5 251.5,260.5C 257.688,265.011 262.355,270.678 265.5,277.5C 262.108,272.599 258.108,268.099 253.5,264C 250.783,261.924 247.783,261.257 244.5,262C 237.019,267.447 231.853,274.613 229,283.5C 228.536,282.906 228.369,282.239 228.5,281.5C 230.048,277.402 231.881,273.402 234,269.5C 237.062,266.268 240.229,263.268 243.5,260.5 Z"/></g>
<g><path style="opacity:0.561" fill="#24682b" d="M 265.5,277.5 C 266.885,278.574 268.051,279.907 269,281.5C 274.349,292.198 279.682,302.864 285,313.5C 287.628,319.678 289.794,326.012 291.5,332.5C 282.624,314.407 273.957,296.074 265.5,277.5 Z"/></g>
<g><path style="opacity:0.577" fill="#25833a" d="M 309.5,411.5 C 310.414,426.142 310.747,440.809 310.5,455.5C 309.76,442.325 309.094,428.992 308.5,415.5C 308.511,413.955 308.844,412.622 309.5,411.5 Z"/></g>
<g><path style="opacity:0.871" fill="#25692b" d="M 218.5,580.5 C 211.71,557.556 206.376,534.223 202.5,510.5C 202.338,508.473 202.505,506.473 203,504.5C 206.812,530.584 212.645,556.084 220.5,581C 220.333,581.5 220.167,582 220,582.5C 219.722,581.584 219.222,580.918 218.5,580.5 Z"/></g>
<g><path style="opacity:0.898" fill="#1c6727" d="M 287.5,570.5 C 282.541,583.87 276.708,596.87 270,609.5C 267.147,613.235 264.313,616.902 261.5,620.5C 270.968,604.562 279.135,587.896 286,570.5C 286.69,569.262 287.19,569.262 287.5,570.5 Z"/></g>
<g><path style="opacity:0.855" fill="#1b6828" d="M 257.5,624.5 C 254.443,630.139 249.776,631.972 243.5,630C 240.333,626.833 237.167,623.667 234,620.5C 228.411,608.898 223.911,596.898 220.5,584.5C 225.229,596.022 230.395,608.022 236,620.5C 238.537,623.372 241.37,625.872 244.5,628C 247.167,628.667 249.833,628.667 252.5,628C 253.789,626.198 255.456,625.031 257.5,624.5 Z"/></g>
</svg>
